<?xml version="1.0" ?><!DOCTYPE svg  PUBLIC '-//W3C//DTD SVG 1.1//EN'  'http://www.w3.org/Graphics/SVG/1.1/DTD/svg11.dtd'><svg enable-background="new 0 0 512 512" height="512px" id="Layer_3" version="1.1" viewBox="0 0 512 512" width="512px" xml:space="preserve" xmlns="http://www.w3.org/2000/svg" xmlns:xlink="http://www.w3.org/1999/xlink"><g><path d="M479.579,434.579c0,24.75-20.25,45-45,45H77.421c-24.75,0-45-20.25-45-45V77.421c0-24.75,20.25-45,45-45   h357.158c24.75,0,45,20.25,45,45V434.579z" fill="#FDF196"/></g><g><path d="M395.132,65.538H116.868c-28.347,0-51.328,22.981-51.328,51.327V395.13   c0,28.351,22.981,51.329,51.328,51.329h137.236l0.237-136.118h-35.367c-4.596,0-8.326-3.717-8.34-8.313l-0.174-43.88   c-0.018-4.62,3.727-8.377,8.346-8.377h35.303v-42.398c0-49.198,30.048-75.989,73.938-75.989h36.018   c4.604,0,8.345,3.735,8.345,8.345v36.997c0,4.609-3.735,8.345-8.341,8.345l-22.104,0.012c-23.869,0-28.492,11.34-28.492,27.988   v36.704h52.448c5,0,8.877,4.365,8.285,9.325l-5.2,43.88c-0.496,4.2-4.059,7.362-8.286,7.362h-47.01l-0.237,136.122h81.659   c28.347,0,51.328-22.982,51.328-51.328V116.865C446.46,88.519,423.479,65.538,395.132,65.538L395.132,65.538z M395.132,65.538" fill="#485992"/></g></svg>